<svg data-v-423bf9ae="" xmlns="http://www.w3.org/2000/svg" viewBox="0 0 654 90" class="iconLeftSlogan"><!----><!----><!----><g data-v-423bf9ae="" id="22bbb33f-509e-4cce-a03b-6ddb0ae97322" fill="#2A1B3C" transform="matrix(6.54307587140309,0,0,6.54307587140309,105.41985892317604,-53.78408588696031)"><path d="M0.70 8.43L3.50 8.43L3.50 17.18L0.70 17.18L0.70 8.43ZM9.03 10.74L9.03 17.18L6.23 17.18L6.23 10.74L4.27 10.74L4.27 8.43L10.99 8.43L10.99 10.74L9.03 10.74ZM14.60 14.57L14.60 14.57Q16.00 15.02 17.44 15.02L17.44 15.02L17.44 15.02Q18.16 15.02 18.58 14.95L18.58 14.95L18.58 14.18L17.32 14.07L17.32 14.07Q16.23 13.97 15.58 13.67L15.58 13.67L15.58 13.67Q14.92 13.37 14.63 12.81L14.63 12.81L14.63 12.81Q14.34 12.25 14.34 11.35L14.34 11.35L14.34 11.35Q14.34 10.18 14.67 9.50L14.67 9.50L14.67 9.50Q15.01 8.82 15.76 8.52L15.76 8.52L15.76 8.52Q16.51 8.22 17.82 8.22L17.82 8.22L17.82 8.22Q19.54 8.22 21.11 8.64L21.11 8.64L20.76 10.88L20.76 10.88Q20.03 10.72 19.53 10.66L19.53 10.66L19.53 10.66Q19.03 10.60 18.49 10.60L18.49 10.60L18.49 10.60Q17.78 10.60 17.35 10.67L17.35 10.67L17.35 11.42L18.35 11.52L18.35 11.52Q20.06 11.69 20.83 12.37L20.83 12.37L20.83 12.37Q21.59 13.05 21.59 14.39L21.59 14.39L21.59 14.39Q21.59 15.95 20.69 16.67L20.69 16.67L20.69 16.67Q19.80 17.39 17.86 17.39L17.86 17.39L17.86 17.39Q15.88 17.39 14.21 16.88L14.21 16.88L14.60 14.57ZM22.36 12.81L22.36 12.81Q22.36 11.05 22.75 10.06L22.75 10.06L22.75 10.06Q23.14 9.07 24.05 8.65L24.05 8.65L24.05 8.65Q24.95 8.22 26.56 8.22L26.56 8.22L26.56 8.22Q28.17 8.22 29.07 8.65L29.07 8.65L29.07 8.65Q29.97 9.07 30.37 10.06L30.37 10.06L30.37 10.06Q30.76 11.05 30.76 12.81L30.76 12.81L30.76 12.81Q30.76 14.57 30.37 15.55L30.37 15.55L30.37 15.55Q29.97 16.53 29.07 16.96L29.07 16.96L29.07 16.96Q28.17 17.39 26.56 17.39L26.56 17.39L26.56 17.39Q24.95 17.39 24.05 16.96L24.05 16.96L24.05 16.96Q23.14 16.53 22.75 15.55L22.75 15.55L22.75 15.55Q22.36 14.57 22.36 12.81L22.36 12.81ZM25.37 14.99L26.64 14.99L26.64 14.99Q27.27 14.99 27.51 14.83L27.51 14.83L27.51 14.83Q27.75 14.67 27.75 14.25L27.75 14.25L27.75 10.61L26.46 10.61L26.46 10.61Q25.84 10.61 25.61 10.77L25.61 10.77L25.61 10.77Q25.37 10.93 25.37 11.35L25.37 11.35L25.37 14.99ZM31.88 17.18L31.88 8.43L34.68 8.43L34.68 14.87L37.34 14.87L37.34 17.18L31.88 17.18ZM41.83 17.39L41.83 17.39Q40.26 17.39 39.45 17.09L39.45 17.09L39.45 17.09Q38.64 16.79 38.30 16.05L38.30 16.05L38.30 16.05Q37.97 15.32 37.97 13.90L37.97 13.90L37.97 8.43L40.77 8.43L40.77 14.99L41.89 14.99L41.89 14.99Q42.52 14.99 42.72 14.85L42.72 14.85L42.72 14.85Q42.92 14.70 42.92 14.25L42.92 14.25L42.92 8.43L45.72 8.43L45.72 13.90L45.72 13.90Q45.72 15.30 45.39 16.04L45.39 16.04L45.39 16.04Q45.05 16.79 44.23 17.09L44.23 17.09L44.23 17.09Q43.40 17.39 41.83 17.39L41.83 17.39ZM51.11 10.74L51.11 17.18L48.31 17.18L48.31 10.74L46.35 10.74L46.35 8.43L53.07 8.43L53.07 10.74L51.11 10.74ZM53.84 8.43L56.64 8.43L56.64 17.18L53.84 17.18L53.84 8.43ZM57.76 12.81L57.76 12.81Q57.76 11.05 58.16 10.06L58.16 10.06L58.16 10.06Q58.55 9.07 59.45 8.65L59.45 8.65L59.45 8.65Q60.35 8.22 61.96 8.22L61.96 8.22L61.96 8.22Q63.57 8.22 64.48 8.65L64.48 8.65L64.48 8.65Q65.38 9.07 65.77 10.06L65.77 10.06L65.77 10.06Q66.16 11.05 66.16 12.81L66.16 12.81L66.16 12.81Q66.16 14.57 65.77 15.55L65.77 15.55L65.77 15.55Q65.38 16.53 64.48 16.96L64.48 16.96L64.48 16.96Q63.57 17.39 61.96 17.39L61.96 17.39L61.96 17.39Q60.35 17.39 59.45 16.96L59.45 16.96L59.45 16.96Q58.55 16.53 58.16 15.55L58.16 15.55L58.16 15.55Q57.76 14.57 57.76 12.81L57.76 12.81ZM60.77 14.99L62.05 14.99L62.05 14.99Q62.68 14.99 62.92 14.83L62.92 14.83L62.92 14.83Q63.15 14.67 63.15 14.25L63.15 14.25L63.15 10.61L61.87 10.61L61.87 10.61Q61.25 10.61 61.01 10.77L61.01 10.77L61.01 10.77Q60.77 10.93 60.77 11.35L60.77 11.35L60.77 14.99ZM67.35 17.18L67.35 8.43L70.13 8.43L72.03 11.49L72.03 11.49Q72.38 12.08 72.38 12.49L72.38 12.49L72.46 12.49L72.46 8.43L75.26 8.43L75.26 17.18L72.49 17.18L70.59 14.11L70.59 14.11Q70.24 13.52 70.24 13.12L70.24 13.12L70.15 13.12L70.15 17.18L67.35 17.18ZM76.78 14.57L76.78 14.57Q78.18 15.02 79.62 15.02L79.62 15.02L79.62 15.02Q80.33 15.02 80.75 14.95L80.75 14.95L80.75 14.18L79.49 14.07L79.49 14.07Q78.40 13.97 77.75 13.67L77.75 13.67L77.75 13.67Q77.10 13.37 76.80 12.81L76.80 12.81L76.80 12.81Q76.51 12.25 76.51 11.35L76.51 11.35L76.51 11.35Q76.51 10.18 76.85 9.50L76.85 9.50L76.85 9.50Q77.18 8.82 77.93 8.52L77.93 8.52L77.93 8.52Q78.68 8.22 80.00 8.22L80.00 8.22L80.00 8.22Q81.72 8.22 83.29 8.64L83.29 8.64L82.94 10.88L82.94 10.88Q82.21 10.72 81.70 10.66L81.70 10.66L81.70 10.66Q81.20 10.60 80.67 10.60L80.67 10.60L80.67 10.60Q79.95 10.60 79.52 10.67L79.52 10.67L79.52 11.42L80.53 11.52L80.53 11.52Q82.24 11.69 83.00 12.37L83.00 12.37L83.00 12.37Q83.76 13.05 83.76 14.39L83.76 14.39L83.76 14.39Q83.76 15.95 82.87 16.67L82.87 16.67L82.87 16.67Q81.97 17.39 80.04 17.39L80.04 17.39L80.04 17.39Q78.05 17.39 76.38 16.88L76.38 16.88L76.78 14.57Z"></path></g><defs data-v-423bf9ae=""><linearGradient data-v-423bf9ae="" gradientTransform="rotate(25)" id="d533e175-cee0-4561-a673-5a0d90eb8079" x1="0%" y1="0%" x2="100%" y2="0%"><stop data-v-423bf9ae="" offset="0%" style="stop-color: rgb(54, 22, 172); stop-opacity: 1;"></stop><stop data-v-423bf9ae="" offset="100%" style="stop-color: rgb(224, 155, 237); stop-opacity: 1;"></stop></linearGradient></defs><g data-v-423bf9ae="" id="be88c664-390b-4ea1-b785-1787f1cff9c5" transform="matrix(2.8125,0,0,2.8125,0,0)" stroke="none" fill="url(#d533e175-cee0-4561-a673-5a0d90eb8079)"><path d="M29.625 1l-3.099 3.172H4.054v23.657h22.472L29.625 31H1V1h28.625M32 0H0v32h32l-5.054-5.172H5.054V5.172h21.893L32 0z"></path><path d="M21.038 10.962v10.076H10.962V10.962h10.076m1-1H9.962v12.076h12.076V9.962z"></path></g><!----><g data-v-423bf9ae="" id="2c0e03e2-8fcb-46ed-91d8-46bbf158c685" fill="#2A1B3C" transform="matrix(1.4835169815870284,0,0,1.4835169815870284,108.32363111431496,56.88461270891824)"><path d="M7.95 3.22L7.95 2.21L1.13 2.21L1.13 11.48L7.95 11.48L7.95 10.47L2.18 10.47L2.18 7.35L7.34 7.35L7.34 6.33L2.18 6.33L2.18 3.22ZM16.65 2.21L16.65 11.48L22.75 11.48L22.75 10.47L17.70 10.47L17.70 2.21ZM37.93 3.22L37.93 2.21L31.11 2.21L31.11 11.48L37.93 11.48L37.93 10.47L32.16 10.47L32.16 7.35L37.31 7.35L37.31 6.33L32.16 6.33L32.16 3.22ZM50.43 10.57C48.17 10.57 46.91 8.93 46.91 6.85C46.91 4.76 48.17 3.12 50.43 3.12C51.95 3.12 52.96 3.85 53.44 4.98L54.54 4.98C53.96 3.29 52.44 2.10 50.34 2.10C47.56 2.10 45.86 4.21 45.86 6.85C45.86 9.48 47.56 11.59 50.34 11.59C52.44 11.59 53.96 10.40 54.54 8.71L53.44 8.71C52.96 9.84 51.95 10.57 50.43 10.57ZM69.61 2.21L62.09 2.21L62.09 3.22L65.32 3.22L65.32 11.48L66.37 11.48L66.37 3.22L69.61 3.22ZM78.99 7.92L82.21 7.92L84.45 11.48L85.69 11.48L83.26 7.74C84.29 7.50 85.50 6.90 85.50 5.11C85.50 3.35 84.28 2.21 82.38 2.21L77.94 2.21L77.94 11.48L78.99 11.48ZM78.99 3.21L82.25 3.21C83.57 3.21 84.45 3.93 84.45 5.11C84.45 6.55 83.19 6.93 82.19 6.93L78.99 6.93ZM98.42 2.10C95.61 2.10 93.72 4.21 93.72 6.85C93.72 9.48 95.61 11.59 98.42 11.59C101.23 11.59 103.12 9.48 103.12 6.85C103.12 4.21 101.23 2.10 98.42 2.10ZM98.42 10.57C96.17 10.57 94.77 8.93 94.77 6.85C94.77 4.76 96.17 3.12 98.42 3.12C100.67 3.12 102.07 4.76 102.07 6.85C102.07 8.93 100.67 10.57 98.42 10.57ZM118.75 2.21L118.75 10.01L113.02 2.21L111.80 2.21L111.80 11.48L112.85 11.48L112.85 3.65L118.58 11.48L119.80 11.48L119.80 2.21ZM130.12 2.21L129.07 2.21L129.07 11.48L130.12 11.48ZM143.36 10.57C141.11 10.57 139.85 8.93 139.85 6.85C139.85 4.76 141.11 3.12 143.36 3.12C144.89 3.12 145.89 3.85 146.37 4.98L147.48 4.98C146.89 3.29 145.38 2.10 143.28 2.10C140.49 2.10 138.80 4.21 138.80 6.85C138.80 9.48 140.49 11.59 143.28 11.59C145.38 11.59 146.89 10.40 147.48 8.71L146.37 8.71C145.89 9.84 144.89 10.57 143.36 10.57ZM156.58 4.65C156.58 4.03 156.94 3.08 159.04 3.08C160.73 3.08 161.52 3.82 161.63 4.75L162.71 4.75C162.62 3.36 161.50 2.10 159.04 2.10C156.72 2.10 155.55 3.15 155.55 4.66C155.55 7.84 161.90 6.69 161.90 8.96C161.90 10.05 160.92 10.60 159.35 10.60C157.74 10.60 156.44 10.05 156.37 8.71L155.27 8.71C155.41 10.37 156.53 11.59 159.28 11.59C161.56 11.59 162.95 10.64 162.95 8.92C162.95 5.68 156.58 6.80 156.58 4.65ZM182.17 4.65C182.17 4.03 182.53 3.08 184.63 3.08C186.33 3.08 187.11 3.82 187.22 4.75L188.30 4.75C188.22 3.36 187.10 2.10 184.63 2.10C182.31 2.10 181.15 3.15 181.15 4.66C181.15 7.84 187.49 6.69 187.49 8.96C187.49 10.05 186.51 10.60 184.94 10.60C183.33 10.60 182.03 10.05 181.96 8.71L180.87 8.71C181.01 10.37 182.13 11.59 184.87 11.59C187.15 11.59 188.54 10.64 188.54 8.92C188.54 5.68 182.17 6.80 182.17 4.65ZM203.98 3.22L203.98 2.21L197.16 2.21L197.16 11.48L203.98 11.48L203.98 10.47L198.21 10.47L198.21 7.35L203.36 7.35L203.36 6.33L198.21 6.33L198.21 3.22ZM213.72 7.92L216.94 7.92L219.18 11.48L220.43 11.48L217.99 7.74C219.03 7.50 220.23 6.90 220.23 5.11C220.23 3.35 219.02 2.21 217.11 2.21L212.67 2.21L212.67 11.48L213.72 11.48ZM213.72 3.21L216.99 3.21C218.30 3.21 219.18 3.93 219.18 5.11C219.18 6.55 217.92 6.93 216.93 6.93L213.72 6.93ZM235.51 2.21L232.30 10.29L229.10 2.21L227.95 2.21L231.70 11.48L232.90 11.48L236.66 2.21ZM245.88 2.21L244.83 2.21L244.83 11.48L245.88 11.48ZM259.13 10.57C256.87 10.57 255.61 8.93 255.61 6.85C255.61 4.76 256.87 3.12 259.13 3.12C260.65 3.12 261.66 3.85 262.14 4.98L263.24 4.98C262.65 3.29 261.14 2.10 259.04 2.10C256.26 2.10 254.56 4.21 254.56 6.85C254.56 9.48 256.26 11.59 259.04 11.59C261.14 11.59 262.65 10.40 263.24 8.71L262.14 8.71C261.66 9.84 260.65 10.57 259.13 10.57ZM278.63 3.22L278.63 2.21L271.81 2.21L271.81 11.48L278.63 11.48L278.63 10.47L272.86 10.47L272.86 7.35L278.01 7.35L278.01 6.33L272.86 6.33L272.86 3.22ZM287.83 4.65C287.83 4.03 288.19 3.08 290.29 3.08C291.98 3.08 292.77 3.82 292.88 4.75L293.96 4.75C293.87 3.36 292.75 2.10 290.29 2.10C287.97 2.10 286.80 3.15 286.80 4.66C286.80 7.84 293.15 6.69 293.15 8.96C293.15 10.05 292.17 10.60 290.60 10.60C288.99 10.60 287.69 10.05 287.62 8.71L286.52 8.71C286.66 10.37 287.78 11.59 290.53 11.59C292.81 11.59 294.20 10.64 294.20 8.92C294.20 5.68 287.83 6.80 287.83 4.65Z"></path></g></svg>